<svg width="54" height="54" viewBox="0 0 54 54" fill="none" xmlns="http://www.w3.org/2000/svg">
<g clip-path="url(#clip0)">
<path d="M27 0.490234C12.36 0.490234 0.48999 12.3602 0.48999 27.0002C0.48999 41.6402 12.36 53.5102 27 53.5102C41.64 53.5102 53.51 41.6402 53.51 27.0002C53.51 12.3602 41.64 0.490234 27 0.490234ZM27.64 41.6402C24.6 41.5802 21.91 40.0002 20.1 40.0002C19.46 40.0002 18.58 40.4702 18.23 40.9902H16.65V31.2902H18.34C18.34 33.1602 23.95 38.6002 28.34 38.6002C30.91 38.6002 32.61 37.4902 32.61 35.4402C32.61 33.2802 30.56 32.2202 28.52 31.5202C26.36 30.7602 24.49 30.0602 22.26 29.0102C18.4 27.2002 16 24.5102 16 20.8802C16 15.5602 20.03 12.3402 25.3 12.3402C28.05 12.3402 30.56 13.8002 32.55 13.8002C33.08 13.8002 33.89 13.4502 34.19 12.9802H35.77V21.8702H34.08C34.08 20.1702 29.17 15.0302 25.25 15.0302C22.62 15.0302 21.04 16.2602 21.04 18.2502C21.04 20.1202 23.32 21.2302 25.43 22.2302C27.53 23.2202 29.52 23.9802 31.74 24.8002C35.19 26.0902 38 28.6002 38 32.8702C37.99 38.3102 33.72 41.7502 27.64 41.6402Z" fill="#E0E4DF"/>
</g>
<defs>
<clipPath id="clip0">
<path d="M0.48999 0.490234H53.51V53.5102H0.48999V0.490234Z" fill="white"/>
</clipPath>
</defs>
</svg>
